[Header]
FileType HTR
DataType HTRS
FileVersion 1
NumSegments 22
NumFrames 5
DataFrameRate 24
EulerRotationOrder ZYX
CalibrationUnits mm
RotationUnits Degrees
GlobalAxisofGravity Y
BoneLengthAxis Y
ScaleFactor 1.0
[SegmentNames&Hierarchy]
reference	GLOBAL
Hips	reference
Spine	Hips
Spine1	Spine
Neck	Spine1
Head	Neck
LeftShoulder	Spine1
LeftArm	LeftShoulder
LeftForeArm	LeftArm
LeftHand	LeftForeArm
RightShoulder	Spine1
RightArm	RightShoulder
RightForeArm	RightArm
RightHand	RightForeArm
LeftUpLeg	Hips
LeftLeg	LeftUpLeg
LeftFoot	LeftLeg
LeftToeBase	LeftFoot
RightUpLeg	Hips
RightLeg	RightUpLeg
RightFoot	RightLeg
RightToeBase	RightFoot
[BasePosition]
reference	0	0	0	0	0	0	1
Hips	0	0	0	0	0	0	1
Spine	0	0	0	0	-0	90	1
Spine1	0	0	0	0	0	0	1
Neck	0	0	0	-7.352430803	-7.352430803	90	1
Head	0	0	0	0	-0	90	1
LeftShoulder	0	0	0	0	0	0	1
LeftArm	0	0	0	0	0	0	1
LeftForeArm	0	0	0	0	0	0	1
LeftHand	0	0	0	0	0	0	1
RightShoulder	0	0	0	0	-0	180	1
RightArm	0	0	0	0	-0	180	1
RightForeArm	0	0	0	0	-0	180	1
RightHand	0	0	0	0	-0	180	1
LeftUpLeg	0	0	0	0	-0	-90	1
LeftLeg	0	0	0	0	-0	-90	1
LeftFoot	0	0	0	66.57150701	-66.57150701	-90	1
LeftToeBase	0	0	0	0	-90	0	1
RightUpLeg	0	0	0	0	-0	-90	1
RightLeg	0	0	0	0	-0	-90	1
RightFoot	0	0	0	66.57150701	-66.57150701	-90	1
RightToeBase	0	0	0	0	-90	0	1
[reference]
60	0	0	0	0	-0	0	1.0
61	0	0	0	0	-0	0	1.0
62	0	0	0	0	-0	0	1.0
63	0	0	0	0	-0	0	1.0
64	0	0	0	0	-0	0	1.0
[Hips]
60	0.3201799989	8.912264824	1.158186197	11.19028854	-102.451355	-1.308077812	1.0
61	0.3201799989	8.794969559	1.158759952	12.19805908	-101.5998535	-2.66583252	1.0
62	0.3201799989	8.802069664	1.158759952	15.96305275	-99.93369293	-5.880236149	1.0
63	0.3201799989	8.802069664	1.158759952	18.19330788	-98.26695251	-9.408838272	1.0
64	0.3201799989	8.802069664	1.158759952	20.85612869	-96.90855408	-12.13819981	1.0
[Spine]
60	0	0.7478299737	0	-9.718845367	0.130286321	-89.50843048	1.0
61	0	0.7478299737	0	-11.15367699	-0.2261718363	-88.77989197	1.0
62	0	0.7478299737	0	-13.94967937	-1.63640058	-89.47969055	1.0
63	0	0.7478299737	0	-12.83277798	-2.707201958	-90.38703918	1.0
64	0	0.7478299737	0	-12.25176907	-2.665025949	-90.1124649	1.0
[Spine1]
60	0	2.049309969	0	-3.995209455	-0.04390611872	-1.730528831	1.0
61	0	2.049309969	0	0.9071751237	-0.08985573798	-3.36813283	1.0
62	0	2.049309969	0	6.098176479	-0.4427578747	-2.357095957	1.0
63	0	2.049309969	0	4.921682835	-0.8306085467	-1.000805259	1.0
64	0	2.049309969	0	2.515821934	-0.8650975227	-1.201960325	1.0
[Neck]
60	0	2.231709957	0	14.15505886	11.28017712	-83.75871277	1.0
61	0	2.231709957	0	6.069366455	10.92401123	-84.41649628	1.0
62	0	2.231709957	0	0.07756561041	10.40783787	-86.17689514	1.0
63	0	2.231709957	0	0.9612480402	10.83770561	-86.88894653	1.0
64	0	2.231709957	0	2.253149033	9.545355797	-86.57426453	1.0
[Head]
60	0	1.413589954	0.1823999882	-17.26444817	4.859095097	-96.12320709	1.0
61	0	1.413589954	0.1823999882	-12.47805023	4.285376072	-93.71304321	1.0
62	0	1.413589954	0.1823999882	-10.18937492	2.931876898	-92.31006622	1.0
63	0	1.413589954	0.1823999882	-9.983437538	0.4344440699	-91.92054749	1.0
64	0	1.413589954	0.1823999882	-7.477841377	-0.004169903696	-92.78623199	1.0
[LeftShoulder]
60	0.3649300039	1.825889945	-0.04271000251	-10.3691082	-10.82436275	0.5099251866	1.0
61	0.3649300039	1.825889945	-0.04271000251	-14.66032696	-10.36786556	2.231060028	1.0
62	0.3649300039	1.825889945	-0.04271000251	-13.00160789	-10.57771111	5.070416451	1.0
63	0.3649300039	1.825889945	-0.04271000251	-9.300646782	-12.03358459	4.13403368	1.0
64	0.3649300039	1.825889945	-0.04271000251	-8.710314751	-12.25210476	4.681734085	1.0
[LeftArm]
60	1.24003005	0	0	45.00136566	4.181206703	-79.62104797	1.0
61	1.24003005	0	0	45.31437683	7.18618536	-81.59877014	1.0
62	1.24003005	0	0	34.78292084	7.732711315	-84.545578	1.0
63	1.24003005	0	0	26.31789207	9.846079826	-83.83911896	1.0
64	1.24003005	0	0	21.42054749	12.95252132	-83.8452301	1.0
[LeftForeArm]
60	2.847419977	0	0	-9.848478317	-7.485014915	-5.273076057	1.0
61	2.847419977	0	0	-10.37469959	-0.7528319359	-8.448679924	1.0
62	2.847419977	0	0	-7.107491016	-1.797588944	-8.60185051	1.0
63	2.847419977	0	0	-9.789491653	-4.582615376	-9.081754684	1.0
64	2.847419977	0	0	-14.68037224	-6.164501667	-9.254508972	1.0
[LeftHand]
60	2.258270025	0	0	-9.974666595	-4.159045696	-6.008765221	1.0
61	2.258270025	0	0	-10.47026539	0.5428034663	-8.387705803	1.0
62	2.258270025	0	0	-7.27468729	0.5798159242	-6.266028881	1.0
63	2.258270025	0	0	-10.01461124	-2.440529585	-6.52677393	1.0
64	2.258270025	0	0	-14.91791821	-3.098087072	-9.668992996	1.0
[RightShoulder]
60	-0.3646599948	1.825889945	-0.04271000251	-8.823644638	9.789735794	180.1451263	1.0
61	-0.3646599948	1.825889945	-0.04271000251	-11.6030407	9.009719849	179.8744049	1.0
62	-0.3646599948	1.825889945	-0.04271000251	-10.57221317	8.081707001	177.6305237	1.0
63	-0.3646599948	1.825889945	-0.04271000251	-7.848390579	7.88526392	178.065033	1.0
64	-0.3646599948	1.825889945	-0.04271000251	-6.785764694	7.129156113	178.4518433	1.0
[RightArm]
60	-1.24003005	0	0	59.63840485	-0.3533180356	-96.57556152	1.0
61	-1.24003005	0	0	51.17540741	-3.784849405	-96.91651917	1.0
62	-1.24003005	0	0	32.89468002	-4.215348244	-98.43569183	1.0
63	-1.24003005	0	0	28.67304802	-6.231855392	-100.929718	1.0
64	-1.24003005	0	0	30.18567657	-9.369739532	-101.8598175	1.0
[RightForeArm]
60	-2.847419977	0	0	5.925627708	5.644750118	184.6465759	1.0
61	-2.847419977	0	0	5.838723183	2.639769554	184.9659271	1.0
62	-2.847419977	0	0	11.72866535	4.649273872	187.7963409	1.0
63	-2.847419977	0	0	11.2070694	7.585839272	188.9120636	1.0
64	-2.847419977	0	0	8.451770782	9.387887001	188.5567017	1.0
[RightHand]
60	-2.258270025	0	0	6.066818714	4.074840546	191.684021	1.0
61	-2.258270025	0	0	5.794386864	0.7733618021	190.3398895	1.0
62	-2.258270025	0	0	11.54561615	2.731510162	185.3885956	1.0
63	-2.258270025	0	0	10.8613081	4.096309662	186.8228149	1.0
64	-2.258270025	0	0	8.095257759	4.519688606	188.7487488	1.0
[LeftUpLeg]
60	0.9119900465	0	0	-1.91915071	-8.695098877	96.42112732	1.0
61	0.9119900465	0	0	-2.139591932	-11.41520405	95.28907776	1.0
62	0.9119900465	0	0	-4.210343361	-14.06592846	95.88145447	1.0
63	0.9119900465	0	0	-4.100290775	-9.781320572	95.41238403	1.0
64	0.9119900465	0	0	-4.072031975	-8.965526581	95.02116394	1.0
[LeftLeg]
60	0	-4.371409893	0	-2.045435429	2.385995626	88.5848465	1.0
61	0	-4.371409893	0	-1.171218514	0.4134925902	90.28634644	1.0
62	0	-4.371409893	0	0.3908166885	3.654748201	89.20811462	1.0
63	0	-4.371409893	0	2.093508482	-2.956103325	88.20474243	1.0
64	0	-4.371409893	0	2.037353039	-3.121495485	88.84152985	1.0
[LeftFoot]
60	0	-3.918009996	0	119.237381	80.22415161	155.3881989	1.0
61	0	-3.918009996	0	108.5298157	76.55292511	152.1857605	1.0
62	0	-3.918009996	0	106.00177	78.10813904	145.6172333	1.0
63	0	-3.918009996	0	114.7331848	77.97317505	152.605896	1.0
64	0	-3.918009996	0	105.6353378	78.82476044	144.2983246	1.0
[LeftToeBase]
60	0	-0.5927900076	1.367989898	0	0	0	1.0
61	0	-0.5927900076	1.367989898	0	0	0	1.0
62	0	-0.5927900076	1.367989898	0	0	0	1.0
63	0	-0.5927900076	1.367989898	0	0	0	1.0
64	0	-0.5927900076	1.367989898	0	0	0	1.0
[RightUpLeg]
60	-0.9119900465	0	0	-3.092446327	-9.676620483	85.10993958	1.0
61	-0.9119900465	0	0	-3.774978399	-5.563218594	84.8649292	1.0
62	-0.9119900465	0	0	-5.124017239	-8.085288048	85.00764465	1.0
63	-0.9119900465	0	0	-3.292224407	-13.34491348	84.57210541	1.0
64	-0.9119900465	0	0	-2.600941181	-14.42716694	84.11414337	1.0
[RightLeg]
60	0	-4.371409893	0	-6.826595783	-4.387253761	92.11723328	1.0
61	0	-4.371409893	0	-4.718768597	-5.963228703	90.53794861	1.0
62	0	-4.371409893	0	-2.836637259	-5.194572926	89.89743042	1.0
63	0	-4.371409893	0	-3.353964329	-3.598614454	90.47499084	1.0
64	0	-4.371409893	0	-3.617125988	-3.634616852	91.22119141	1.0
[RightFoot]
60	0	-3.918009996	0	66.2288208	58.59940338	92.99074554	1.0
61	0	-3.918009996	0	53.09285355	59.32746124	88.0267868	1.0
62	0	-3.918009996	0	55.22426224	59.11212921	87.53452301	1.0
63	0	-3.918009996	0	60.24135971	59.03810883	90.05769348	1.0
64	0	-3.918009996	0	58.65243912	58.93402863	89.62136841	1.0
[RightToeBase]
60	0	-0.5927900076	1.367989898	0	0	0	1.0
61	0	-0.5927900076	1.367989898	0	0	0	1.0
62	0	-0.5927900076	1.367989898	0	0	0	1.0
63	0	-0.5927900076	1.367989898	0	0	0	1.0
64	0	-0.5927900076	1.367989898	0	0	0	1.0
[EndOfFile]
